<svg id="visual" viewBox="0 0 900 600" width="900" height="600" xmlns="http://www.w3.org/2000/svg" xmlns:xlink="http://www.w3.org/1999/xlink" version="1.1"><rect x="0" y="0" width="900" height="600" fill="#000851"></rect><defs><linearGradient id="grad1_0" x1="33.3%" y1="100%" x2="100%" y2="0%"><stop offset="20%" stop-color="#17acbe" stop-opacity="1"></stop><stop offset="80%" stop-color="#17acbe" stop-opacity="1"></stop></linearGradient></defs><defs><linearGradient id="grad1_1" x1="33.3%" y1="100%" x2="100%" y2="0%"><stop offset="20%" stop-color="#17acbe" stop-opacity="1"></stop><stop offset="80%" stop-color="#005c98" stop-opacity="1"></stop></linearGradient></defs><defs><linearGradient id="grad1_2" x1="33.3%" y1="100%" x2="100%" y2="0%"><stop offset="20%" stop-color="#000851" stop-opacity="1"></stop><stop offset="80%" stop-color="#005c98" stop-opacity="1"></stop></linearGradient></defs><defs><linearGradient id="grad2_0" x1="0%" y1="100%" x2="66.7%" y2="0%"><stop offset="20%" stop-color="#17acbe" stop-opacity="1"></stop><stop offset="80%" stop-color="#17acbe" stop-opacity="1"></stop></linearGradient></defs><defs><linearGradient id="grad2_1" x1="0%" y1="100%" x2="66.7%" y2="0%"><stop offset="20%" stop-color="#005c98" stop-opacity="1"></stop><stop offset="80%" stop-color="#17acbe" stop-opacity="1"></stop></linearGradient></defs><defs><linearGradient id="grad2_2" x1="0%" y1="100%" x2="66.7%" y2="0%"><stop offset="20%" stop-color="#005c98" stop-opacity="1"></stop><stop offset="80%" stop-color="#000851" stop-opacity="1"></stop></linearGradient></defs><g transform="translate(900, 600)"><path d="M-486.7 0C-451 -33.8 -415.2 -67.5 -409.6 -109.7C-403.9 -152 -428.5 -202.7 -421.5 -243.4C-414.6 -284.1 -376.1 -314.8 -338 -338C-299.9 -361.2 -262.2 -376.9 -225.5 -390.6C-188.8 -404.3 -153.1 -416.1 -115.7 -431.8C-78.3 -447.5 -39.1 -467.1 0 -486.7L0 0Z" fill="#00347a"></path><path d="M-324.5 0C-300.6 -22.5 -276.8 -45 -273 -73.2C-269.3 -101.3 -285.7 -135.1 -281 -162.2C-276.4 -189.4 -250.7 -209.9 -225.3 -225.3C-199.9 -240.8 -174.8 -251.2 -150.3 -260.4C-125.9 -269.5 -102.1 -277.4 -77.1 -287.8C-52.2 -298.3 -26.1 -311.4 0 -324.5L0 0Z" fill="#0084ae"></path><path d="M-162.2 0C-150.3 -11.3 -138.4 -22.5 -136.5 -36.6C-134.6 -50.7 -142.8 -67.6 -140.5 -81.1C-138.2 -94.7 -125.4 -104.9 -112.7 -112.7C-100 -120.4 -87.4 -125.6 -75.2 -130.2C-62.9 -134.8 -51 -138.7 -38.6 -143.9C-26.1 -149.2 -13 -155.7 0 -162.2L0 0Z" fill="#17acbe"></path></g><g transform="translate(0, 0)"><path d="M486.7 0C464.5 38.6 442.3 77.2 423.1 113.4C403.9 149.6 387.6 183.3 367.2 212C346.7 240.7 322 264.2 304.1 304.1C286.1 343.9 274.8 400.1 243.4 421.5C212 443 160.4 429.6 116.5 434.7C72.5 439.7 36.3 463.2 0 486.7L0 0Z" fill="#00347a"></path><path d="M324.5 0C309.7 25.7 294.9 51.4 282.1 75.6C269.2 99.7 258.4 122.2 244.8 141.3C231.2 160.4 214.7 176.1 202.7 202.7C190.7 229.3 183.2 266.7 162.2 281C141.3 295.3 106.9 286.4 77.6 289.8C48.4 293.2 24.2 308.8 0 324.5L0 0Z" fill="#0084ae"></path><path d="M162.2 0C154.8 12.9 147.4 25.7 141 37.8C134.6 49.9 129.2 61.1 122.4 70.7C115.6 80.2 107.3 88.1 101.4 101.4C95.4 114.6 91.6 133.4 81.1 140.5C70.7 147.7 53.5 143.2 38.8 144.9C24.2 146.6 12.1 154.4 0 162.2L0 0Z" fill="#17acbe"></path></g></svg>